<svg width="154" height="30" viewBox="0 0 154 30" fill="#ffffff" stroke="#ffffff" xmlns="http://www.w3.org/2000/svg">
<path d="M24 24V12H30V24H24ZM0 24V6H24V12H18V24H12V12H6V24H0ZM46.56 30V24H34.56V6H40.56V18H46.56V6H52.56V30H46.56ZM57.12 24V12H63.12V18H69.12V12H63.12V6H75.12V24H57.12ZM91.68 24V18H97.68V24H91.68ZM91.68 12V6H97.68V12H91.68ZM79.68 24V0H85.68V12H91.68V18H85.68V24H79.68ZM102.24 24V6H108.24V24H102.24ZM124.8 18V12H118.8V18H124.8ZM112.8 24V0H118.8V6H130.8V24H112.8ZM135.36 24V12H141.36V18H147.36V12H141.36V6H153.36V24H135.36Z" />
</svg>
